<svg xmlns="http://www.w3.org/2000/svg" xmlns:xlink="http://www.w3.org/1999/xlink" version="1.1" width="256" height="256" viewBox="0 0 256 256" xml:space="preserve">
<g style="stroke: none; stroke-width: 0; stroke-dasharray: none; stroke-linecap: butt; stroke-linejoin: miter; stroke-miterlimit: 10; fill: none; fill-rule: nonzero; opacity: 1;" transform="translate(1.4065934065934016 1.4065934065934016) scale(2.81 2.81)">
	<path d="M 49.886 27.623 c -1.572 -0.36 -3.206 -0.556 -4.886 -0.556 c -12.049 0 -21.816 9.767 -21.816 21.816 v 24.825 h 9.773 V 48.883 C 32.956 38.515 40.191 29.842 49.886 27.623 z" style="stroke: none; stroke-width: 1; stroke-dasharray: none; stroke-linecap: butt; stroke-linejoin: miter; stroke-miterlimit: 10; fill: rgb(219,46,46); fill-rule: nonzero; opacity: 1;" transform=" matrix(1 0 0 1 0 0) " stroke-linecap="round"/>
	<path d="M 49.886 27.623" style="stroke: none; stroke-width: 1; stroke-dasharray: none; stroke-linecap: butt; stroke-linejoin: miter; stroke-miterlimit: 10; fill: rgb(241,51,51); fill-rule: nonzero; opacity: 1;" transform=" matrix(1 0 0 1 0 0) " stroke-linecap="round"/>
	<path d="M 49.886 27.623 c -9.695 2.22 -19.862 10.892 -19.862 21.26 l -6.841 24.825 c 13.888 2.685 28.518 2.333 43.633 0 V 48.883 C 66.816 38.515 59.581 29.842 49.886 27.623 z" style="stroke: none; stroke-width: 1; stroke-dasharray: none; stroke-linecap: butt; stroke-linejoin: miter; stroke-miterlimit: 10; fill: rgb(241,51,51); fill-rule: nonzero; opacity: 1;" transform=" matrix(1 0 0 1 0 0) " stroke-linecap="round"/>
	<path d="M 49.886 27.623 c -1.572 -0.36 -3.206 -0.556 -4.886 -0.556 c -12.049 0 -21.816 9.767 -21.816 21.816 v 24.825 h 9.773 V 48.883 C 32.956 38.515 40.191 29.842 49.886 27.623 z" style="stroke: none; stroke-width: 1; stroke-dasharray: none; stroke-linecap: butt; stroke-linejoin: miter; stroke-miterlimit: 10; fill: rgb(219,46,46); fill-rule: nonzero; opacity: 1;" transform=" matrix(1 0 0 1 0 0) " stroke-linecap="round"/>
	<path d="M 74.768 73.708 H 30.932 v 12.102 h 47.168 v -8.769 C 78.101 75.2 76.608 73.708 74.768 73.708 z" style="stroke: none; stroke-width: 1; stroke-dasharray: none; stroke-linecap: butt; stroke-linejoin: miter; stroke-miterlimit: 10; fill: rgb(75,95,123); fill-rule: nonzero; opacity: 1;" transform=" matrix(1 0 0 1 0 0) " stroke-linecap="round"/>
	<path d="M 32.887 78.651 v -4.943 H 15.232 c -1.841 0 -3.333 1.492 -3.333 3.333 v 7.29 c 0 1.841 1.492 3.333 3.333 3.333 h 59.536 c 1.841 0 3.333 -1.492 3.333 -3.333 v -0.475 H 38.092 C 35.217 83.856 32.887 81.526 32.887 78.651 z" style="stroke: none; stroke-width: 1; stroke-dasharray: none; stroke-linecap: butt; stroke-linejoin: miter; stroke-miterlimit: 10; fill: rgb(55,70,91); fill-rule: nonzero; opacity: 1;" transform=" matrix(1 0 0 1 0 0) " stroke-linecap="round"/>
	<path d="M 14.389 47.336 H 2 c -1.104 0 -2 -0.895 -2 -2 c 0 -1.104 0.896 -2 2 -2 h 12.389 c 1.104 0 2 0.896 2 2 C 16.389 46.441 15.494 47.336 14.389 47.336 z" style="stroke: none; stroke-width: 1; stroke-dasharray: none; stroke-linecap: butt; stroke-linejoin: miter; stroke-miterlimit: 10; fill: rgb(241,51,51); fill-rule: nonzero; opacity: 1;" transform=" matrix(1 0 0 1 0 0) " stroke-linecap="round"/>
	<path d="M 88 47.336 H 75.61 c -1.104 0 -2 -0.895 -2 -2 c 0 -1.104 0.896 -2 2 -2 H 88 c 1.104 0 2 0.896 2 2 C 90 46.441 89.104 47.336 88 47.336 z" style="stroke: none; stroke-width: 1; stroke-dasharray: none; stroke-linecap: butt; stroke-linejoin: miter; stroke-miterlimit: 10; fill: rgb(241,51,51); fill-rule: nonzero; opacity: 1;" transform=" matrix(1 0 0 1 0 0) " stroke-linecap="round"/>
	<path d="M 45 16.726 c -1.104 0 -2 -0.896 -2 -2 V 2.336 c 0 -1.104 0.896 -2 2 -2 s 2 0.896 2 2 v 12.39 C 47 15.831 46.104 16.726 45 16.726 z" style="stroke: none; stroke-width: 1; stroke-dasharray: none; stroke-linecap: butt; stroke-linejoin: miter; stroke-miterlimit: 10; fill: rgb(241,51,51); fill-rule: nonzero; opacity: 1;" transform=" matrix(1 0 0 1 0 0) " stroke-linecap="round"/>
	<path d="M 23.355 25.691 c -0.512 0 -1.024 -0.195 -1.414 -0.586 l -8.761 -8.761 c -0.781 -0.781 -0.781 -2.047 0 -2.828 c 0.78 -0.781 2.048 -0.781 2.828 0 l 8.761 8.761 c 0.781 0.781 0.781 2.047 0 2.828 C 24.379 25.496 23.867 25.691 23.355 25.691 z" style="stroke: none; stroke-width: 1; stroke-dasharray: none; stroke-linecap: butt; stroke-linejoin: miter; stroke-miterlimit: 10; fill: rgb(241,51,51); fill-rule: nonzero; opacity: 1;" transform=" matrix(1 0 0 1 0 0) " stroke-linecap="round"/>
	<path d="M 66.645 25.691 c -0.512 0 -1.023 -0.195 -1.414 -0.586 c -0.781 -0.781 -0.781 -2.047 0 -2.828 l 8.761 -8.761 c 0.781 -0.781 2.047 -0.781 2.828 0 c 0.781 0.781 0.781 2.047 0 2.828 l -8.761 8.761 C 67.668 25.496 67.156 25.691 66.645 25.691 z" style="stroke: none; stroke-width: 1; stroke-dasharray: none; stroke-linecap: butt; stroke-linejoin: miter; stroke-miterlimit: 10; fill: rgb(241,51,51); fill-rule: nonzero; opacity: 1;" transform=" matrix(1 0 0 1 0 0) " stroke-linecap="round"/>
</g>
</svg>